<svg width="89" height="82" viewBox="0 0 89 82" fill="none" xmlns="http://www.w3.org/2000/svg">
<path fill-rule="evenodd" clip-rule="evenodd" d="M79.1485 3.32523H75.2076H75.1923H6.14033V72.4182V72.4384V74.9585H79.1485V3.32523ZM5.51447 2.07292H74.5664V0.158691H1.55888V71.7922H4.88802V2.69898C4.88802 2.35268 5.16798 2.07292 5.51447 2.07292ZM37.5513 8.13601H10.61V70.1478H37.5513V8.13601ZM9.98413 6.88351H38.1771C38.5183 6.88351 38.8036 7.16366 38.8036 7.50976V70.7688C38.8036 71.1151 38.5183 71.3951 38.1771 71.3951H9.98413C9.63764 71.3951 9.35769 71.1151 9.35769 70.7688V7.50976C9.35769 7.16366 9.63764 6.88351 9.98413 6.88351ZM46.4292 6.88351H74.4493C74.7904 6.88351 75.0704 7.16366 75.0704 7.50976V30.5461C75.0704 30.8924 74.7904 31.1723 74.4493 31.1723H46.4292C46.0833 31.1723 45.8026 30.8924 45.8026 30.5461V7.50976C45.8028 7.16366 46.0835 6.88351 46.4292 6.88351ZM73.8228 8.13601H47.0505V29.9198H73.8228V8.13601ZM46.4292 38.5132H74.4493C74.7904 38.5132 75.0704 38.7932 75.0704 39.1395V70.7688C75.0704 71.1151 74.7904 71.3951 74.4493 71.3951H46.4292C46.0833 71.3951 45.8026 71.1151 45.8026 70.7688V39.1395C45.8028 38.7932 46.0835 38.5132 46.4292 38.5132ZM73.8228 39.7657H47.0505V70.1478H73.8228V39.7657ZM57.909 10.6305H50.2167V18.3282H57.909V10.6305ZM49.5908 9.37816H58.5357C58.8814 9.37816 59.1615 9.65831 59.1615 10.0044V18.9491C59.1615 19.2952 58.8814 19.5754 58.5357 19.5754H49.5908C49.2443 19.5754 48.9643 19.2952 48.9643 18.9491V10.0044C48.9643 9.65831 49.2443 9.37816 49.5908 9.37816ZM21.3824 11.5572H15.6503V27.5475H21.3824V11.5572ZM15.0239 10.3101H22.0083C22.3494 10.3101 22.6294 10.59 22.6294 10.9311V28.1738C22.6294 28.5149 22.3494 28.8 22.0083 28.8H15.0239C14.6779 28.8 14.398 28.5151 14.398 28.1738V10.9311C14.398 10.5898 14.6779 10.3101 15.0239 10.3101ZM32.511 11.5572H26.7788V27.5475H32.511V11.5572ZM50.7261 53.6888C50.3795 53.6888 50.0995 53.4089 50.0995 53.0626C50.0995 52.7218 50.3795 52.4363 50.7261 52.4363H70.148C70.4939 52.4363 70.7738 52.7216 70.7738 53.0626C70.7738 53.4089 70.4939 53.6888 70.148 53.6888H50.7261ZM50.7261 58.5048C50.3795 58.5048 50.0995 58.2198 50.0995 57.8785C50.0995 57.5324 50.3795 57.2523 50.7261 57.2523H70.148C70.4939 57.2523 70.7738 57.5324 70.7738 57.8785C70.7738 58.2196 70.4939 58.5048 70.148 58.5048H50.7261ZM50.7261 63.3156C50.3795 63.3156 50.0995 63.0356 50.0995 62.6895C50.0995 62.343 50.3795 62.0632 50.7261 62.0632H70.148C70.4939 62.0632 70.7738 62.343 70.7738 62.6895C70.7738 63.0356 70.4939 63.3156 70.148 63.3156H50.7261ZM14.454 32.0273C14.1073 32.0273 13.8273 31.7476 13.8273 31.4011C13.8273 31.06 14.1073 30.7748 14.454 30.7748H33.7075C34.0486 30.7748 34.3333 31.0598 34.3333 31.4011C34.3333 31.7476 34.0488 32.0273 33.7075 32.0273H14.454ZM20.7056 38.2179C20.9445 38.2179 21.1888 38.0651 21.2701 37.8667C21.4739 37.449 21.1583 36.9656 20.7056 36.9656H19.4579C19.2189 36.9656 18.9747 37.1183 18.8934 37.3169C18.6842 37.7345 19.0051 38.2179 19.4579 38.2179H20.7056ZM25.7094 38.2179C25.9436 38.2179 26.1932 38.0651 26.2694 37.8667C26.4785 37.449 26.1624 36.9656 25.7094 36.9656H24.4571C24.223 36.9656 23.9739 37.1183 23.8972 37.3169C23.6886 37.7345 24.0042 38.2179 24.4571 38.2179H25.7094ZM30.7141 38.2179C30.9482 38.2179 31.1973 38.0651 31.274 37.8667C31.4826 37.449 31.167 36.9656 30.7141 36.9656H29.4618C29.2276 36.9656 28.978 37.1183 28.9013 37.3169C28.6927 37.7345 29.0083 38.2179 29.4618 38.2179H30.7141ZM14.454 36.9656C14.2143 36.9656 13.9702 37.1183 13.8887 37.3169C13.6801 37.7345 14.0011 38.2179 14.454 38.2179H15.7009C15.9406 38.2179 16.1847 38.0651 16.2662 37.8667C16.4748 37.449 16.1544 36.9656 15.7009 36.9656H14.454ZM14.454 44.4084C14.1073 44.4084 13.8273 44.1234 13.8273 43.7821C13.8273 43.4358 14.1073 43.1559 14.454 43.1559H33.7075C34.0486 43.1559 34.3333 43.4358 34.3333 43.7821C34.3333 44.1232 34.0488 44.4084 33.7075 44.4084H14.454ZM20.7056 50.5936C20.9445 50.5936 21.1888 50.4408 21.2701 50.2423C21.4739 49.8251 21.1583 49.3413 20.7056 49.3413H19.4579C19.2189 49.3413 18.9747 49.4941 18.8934 49.6926C18.6842 50.1102 19.0051 50.5936 19.4579 50.5936H20.7056ZM25.7094 50.5936C25.9436 50.5936 26.1932 50.4408 26.2694 50.2423C26.4785 49.8251 26.1624 49.3413 25.7094 49.3413H24.4571C24.223 49.3413 23.9739 49.4941 23.8972 49.6926C23.6886 50.1102 24.0042 50.5936 24.4571 50.5936H25.7094ZM30.7141 50.5936C30.9482 50.5936 31.1973 50.4408 31.274 50.2423C31.4826 49.8251 31.167 49.3413 30.7141 49.3413H29.4618C29.2276 49.3413 28.978 49.4941 28.9013 49.6926C28.6927 50.1102 29.0083 50.5936 29.4618 50.5936H30.7141ZM14.454 49.3413C14.2143 49.3413 13.9702 49.4941 13.8887 49.6926C13.6801 50.1102 14.0011 50.5936 14.454 50.5936H15.7009C15.9406 50.5936 16.1847 50.4408 16.2662 50.2423C16.4748 49.8251 16.1544 49.3413 15.7009 49.3413H14.454ZM14.454 56.784C14.1073 56.784 13.8273 56.5042 13.8273 56.1578C13.8273 55.812 14.1073 55.5315 14.454 55.5315H33.7075C34.0486 55.5315 34.3333 55.812 34.3333 56.1578C34.3333 56.5042 34.0488 56.784 33.7075 56.784H14.454ZM14.454 62.9693C14.1073 62.9693 13.8273 62.6895 13.8273 62.343C13.8273 62.0023 14.1073 61.7167 14.454 61.7167H33.7075C34.0486 61.7167 34.3333 62.0021 34.3333 62.343C34.3333 62.6895 34.0488 62.9693 33.7075 62.9693H14.454ZM62.5214 15.4315C62.1755 15.4315 61.8955 15.1515 61.8955 14.8052C61.8955 14.4641 62.1755 14.179 62.5214 14.179H71.3035C71.6492 14.179 71.9293 14.4639 71.9293 14.8052C71.9293 15.1515 71.6492 15.4315 71.3035 15.4315H62.5214ZM62.5214 17.8343C62.1755 17.8343 61.8955 17.5493 61.8955 17.208C61.8955 16.8615 62.1755 16.5818 62.5214 16.5818H71.3035C71.6492 16.5818 71.9293 16.8615 71.9293 17.208C71.9293 17.5492 71.6492 17.8343 71.3035 17.8343H62.5214ZM62.2771 20.2319C61.9314 20.2319 61.6506 19.952 61.6506 19.6057C61.6506 19.2594 61.9314 18.9794 62.2771 18.9794H71.3035C71.6492 18.9794 71.9293 19.2594 71.9293 19.6057C71.9293 19.952 71.6492 20.2319 71.3035 20.2319H62.2771ZM49.5908 22.6349C49.2443 22.6349 48.9643 22.3549 48.9643 22.0087C48.9643 21.6624 49.2443 21.3826 49.5908 21.3826H71.3035C71.6492 21.3826 71.9293 21.6624 71.9293 22.0087C71.9293 22.3549 71.6492 22.6349 71.3035 22.6349H49.5908ZM49.5908 25.0327C49.2443 25.0327 48.9643 24.7526 48.9643 24.4065C48.9643 24.0654 49.2443 23.7802 49.5908 23.7802H71.3035C71.6492 23.7802 71.9293 24.0652 71.9293 24.4065C71.9293 24.7526 71.6492 25.0327 71.3035 25.0327H49.5908ZM49.5908 27.4353C49.2443 27.4353 48.9643 27.1554 48.9643 26.8091C48.9643 26.4632 49.2443 26.1828 49.5908 26.1828H71.3035C71.6492 26.1828 71.9293 26.4632 71.9293 26.8091C71.9293 27.1554 71.6492 27.4353 71.3035 27.4353H49.5908ZM3.2083 78.8785C2.86718 78.8785 2.58723 78.5985 2.58723 78.2522C2.58723 77.9059 2.86718 77.6259 3.2083 77.6259H62.1904C62.5315 77.6259 62.817 77.9059 62.817 78.2522C62.817 78.5985 62.5317 78.8785 62.1904 78.8785H3.2083ZM37.7444 81.877C37.4032 81.877 37.1233 81.5919 37.1233 81.2508C37.1233 80.9045 37.4032 80.6245 37.7444 80.6245H78.5577C78.9036 80.6245 79.1836 80.9045 79.1836 81.2508C79.1836 81.5917 78.9036 81.877 78.5577 81.877H37.7444ZM82.7372 81.877C82.3908 81.877 82.1108 81.5919 82.1108 81.2508C82.1108 80.9045 82.3908 80.6245 82.7372 80.6245H87.8383C88.1842 80.6245 88.465 80.9045 88.465 81.2508C88.465 81.5917 88.1842 81.877 87.8383 81.877H82.7372ZM0.88661 81.7852C0.540695 81.7852 0.260742 81.5052 0.260742 81.1589C0.260742 80.8126 0.540695 80.5327 0.88661 80.5327H20.227C20.5729 80.5327 20.8528 80.8126 20.8528 81.1589C20.8528 81.5052 20.5729 81.7852 20.227 81.7852H0.88661ZM26.1522 10.3101H33.1374C33.478 10.3101 33.7585 10.59 33.7585 10.9311V28.1738C33.7585 28.5149 33.478 28.8 33.1374 28.8H26.1522C25.8063 28.8 25.5263 28.5151 25.5263 28.1738V10.9311C25.5265 10.5898 25.8065 10.3101 26.1522 10.3101Z" fill="#AA5131"/>
</svg>
