<svg width="88" height="91" viewBox="0 0 88 91" fill="none" xmlns="http://www.w3.org/2000/svg">
<path d="M27.2182 12.1326C31.8962 12.1291 36.8298 11.6936 41.4868 12.1219C42.4793 12.2131 44.1781 12.0049 44.8955 12.9574C45.3598 13.5741 44.9079 16.0599 44.9109 16.7926C44.915 17.8153 44.9191 18.838 44.9232 19.8608C44.9252 20.3721 44.9273 20.8835 44.9294 21.3948C45.1874 22.3113 44.8098 22.5303 43.7964 22.0516C41.9397 22.5214 39.3314 22.0504 37.4068 22.0499C35.4539 22.0494 32.0692 21.4143 30.2185 22.0479C28.5699 22.6124 29.1503 23.4699 28.9018 21.5624C28.7802 20.6291 28.9203 19.5763 28.9291 18.6339C28.9519 16.1935 28.9746 13.7531 28.9974 11.3127C29.0214 8.73961 25.0238 8.73742 24.9998 11.3127C24.9651 15.0301 24.2942 19.3655 24.8905 23.0267C25.1595 24.6786 25.5618 25.5498 27.291 25.9735C30.7796 26.8284 35.4063 26.047 39.0042 26.0479C41.3988 26.0486 45.6901 26.9613 47.7196 25.3071C49.7515 23.6509 48.9204 19.749 48.9116 17.5596C48.902 15.1737 49.5694 11.5932 47.9427 9.55042C46.169 7.32292 42.3614 8.12356 39.9014 8.12542C35.6737 8.1286 31.446 8.13179 27.2182 8.13498C24.646 8.13692 24.6416 12.1346 27.2182 12.1326Z" fill="#AA5131"/>
<path d="M26.627 33.5913C29.8858 33.5719 33.1417 33.6366 36.3971 33.7854C38.9691 33.903 38.9633 29.905 36.3971 29.7877C33.1417 29.6389 29.8858 29.5743 26.627 29.5937C24.0555 29.609 24.0499 33.6067 26.627 33.5913Z" fill="#AA5131"/>
<path d="M25.7368 41.7639C33.0452 41.6293 40.3458 41.7338 47.6472 42.0775C50.2191 42.1986 50.2129 38.2007 47.6472 38.0799C40.3457 37.7362 33.0451 37.6317 25.7368 37.7663C23.1674 37.8136 23.1591 41.8114 25.7368 41.7639Z" fill="#AA5131"/>
<path d="M69.5692 7.2078C70.8405 7.96348 72.0355 8.82456 73.154 9.79106C75.0538 10.4351 75.3281 11.083 73.977 11.735C73.8649 12.3505 70.9425 15.1563 70.7211 15.4378C68.0139 18.8805 65.6767 22.1465 62.4965 25.1719C60.4173 27.1498 58.7361 29.1804 56.9641 31.3973C53.663 35.5273 49.3607 36.4554 44.1843 37.5894C44.9367 38.5682 45.6892 39.5469 46.4416 40.5257C47.7285 38.5081 47.7405 36.9104 48.2655 34.6934C49.6245 28.9551 52.6303 26.4396 56.4457 22.2437C58.1012 20.4231 59.0183 18.5356 60.0655 16.3368C62.3826 11.4718 65.4063 7.92325 69.9618 4.96688C69.0502 4.72786 68.1386 4.48883 67.227 4.2498C67.6215 5.09185 68.0161 5.93389 68.4106 6.77593C69.5012 9.10375 72.9485 7.07643 71.8624 4.75825C71.4679 3.91621 71.0734 3.07416 70.6789 2.23212C70.235 1.28463 68.7877 0.967575 67.9441 1.51504C64.8029 3.55357 62.0539 5.83503 59.7921 8.85662C57.4356 12.0045 56.3694 15.8496 54.0081 18.905C51.5625 22.0696 47.5192 24.2905 45.4756 27.7516C43.4826 31.1268 45.1877 35.062 42.9897 38.508C42.0006 40.0587 43.6283 41.7989 45.247 41.4443C49.3136 40.5534 55.6733 39.7448 58.7303 36.5573C60.7024 34.501 61.7528 31.5029 63.8689 29.3583C66.0263 27.172 68.3454 25.2797 70.28 22.8683C72.2464 20.4173 73.883 17.7357 75.9798 15.3919C77.275 13.9441 78.7645 13.0361 78.734 10.9226C78.6864 7.62607 73.9996 5.34646 71.5869 3.75596C69.4328 2.3359 67.4281 5.79629 69.5692 7.2078Z" fill="#AA5131"/>
<path d="M62.2207 11.7683C63.5913 12.102 64.4808 13.6643 65.7326 14.3204C67.3577 15.172 68.6712 16.9708 70.0295 18.3985C71.8065 20.2661 74.6302 17.4362 72.8563 15.5717C71.9795 14.6501 71.1027 13.7286 70.2258 12.807C69.806 12.3657 69.3954 11.7992 68.9106 11.4247C68.4541 11.072 67.9898 11.0159 67.5213 10.7447C65.9735 9.84916 65.1421 8.36594 63.2834 7.91351C60.7844 7.30522 59.7182 11.1592 62.2207 11.7683Z" fill="#AA5131"/>
<path d="M53.0998 36.9281C53.1478 41.7738 53.1958 46.6194 53.2439 51.4651C53.9101 50.7988 54.5764 50.1325 55.2427 49.4663C49.7859 49.6071 44.329 49.7149 38.8705 49.7565C34.5037 49.7898 28.277 50.8601 24.1332 49.7331C18.8186 48.2877 20.4797 42.5726 20.4783 37.7325C20.4768 32.2146 20.4784 26.6966 20.4831 21.1786C20.4867 16.9295 18.9019 9.53543 21.9046 6.53251C24.8696 3.56721 32.0414 5.07799 36.2309 5.05327C39.6167 5.0333 49.5181 3.32822 52.3832 4.95798C56.1554 7.10372 54.388 14.725 54.3865 18.5685C54.3855 21.1408 58.3831 21.145 58.3842 18.5685C58.3861 13.6585 59.3442 7.41654 58.1885 2.59576C58.0261 1.91841 57.447 1.38878 56.7925 1.19971C51.8762 -0.22047 44.5953 1.00629 39.4613 1.03658C33.8968 1.06941 24.7061 -0.543081 19.5472 1.22232C17.5357 1.91067 17.2876 2.15837 16.58 4.09337C14.7185 9.18374 16.4864 18.9391 16.483 24.4894C16.4787 31.6628 16.4794 38.8361 16.4853 46.0095C16.4872 48.222 15.5811 51.5989 17.5939 53.1967C20.4334 55.4507 29.0829 53.7767 32.3206 53.7776C39.9628 53.7796 47.6031 53.6611 55.2427 53.4639C56.3147 53.4362 57.2525 52.5706 57.2415 51.4651C57.1935 46.6194 57.1454 41.7738 57.0974 36.9281C57.0719 34.3572 53.0742 34.3507 53.0998 36.9281Z" fill="#AA5131"/>
<path d="M76.2098 15.3807C84.5006 13.3544 82.9065 37.4097 83.0367 41.3078C83.2573 47.9092 84.4196 55.1506 83.719 61.725C84.7677 65.8313 82.8137 68.5515 77.8569 69.8855C76.6769 69.8882 75.4968 69.891 74.3167 69.8938C70.4096 70.5168 65.893 69.9137 61.9259 69.9231C54.2554 69.9413 46.5848 69.9594 38.9143 69.9776C31.8338 69.9943 24.7534 70.0111 17.6729 70.0278C12.2481 70.0406 6.31236 70.7854 4.61418 64.1879C3.73244 60.7623 4.65039 55.8479 4.6658 52.3009C4.6953 45.5084 4.72479 38.7159 4.75429 31.9234C4.76742 28.8996 4.01761 24.7045 4.79854 21.7346C3.82795 17.8951 5.69057 15.731 10.3864 15.2424C12.5432 15.2386 14.6999 15.2348 16.8566 15.231C19.4287 15.2265 19.4334 11.2288 16.8566 11.2333C10.5844 11.2444 2.7531 9.20452 0.915226 16.6053C-0.462503 22.1532 0.7668 29.587 0.741904 35.3196C0.712406 42.1122 0.682908 48.9047 0.65341 55.6972C0.625892 62.0339 -1.63322 70.6373 5.66749 73.4681C10.2129 75.2305 16.4639 74.0283 21.2131 74.0171C28.2936 74.0003 35.3741 73.9836 42.4546 73.9668C54.638 73.938 68.5247 75.7713 80.5297 73.7211C89.131 72.2521 87.8441 65.5397 87.6029 58.3221C87.1684 45.3183 87.2665 32.1633 86.2953 19.1892C85.7564 11.991 82.2626 9.78678 75.147 11.5259C72.6492 12.1364 73.707 15.9924 76.2098 15.3807Z" fill="#AA5131"/>
<path d="M52.1891 73.983C55.5462 77.9541 57.9369 82.1621 59.6485 87.087C59.9547 86.3346 60.2609 85.5822 60.5671 84.8297C57.3892 87.1045 50.5773 86.0004 46.9122 86.0038C42.9876 86.0075 38.4474 86.6056 34.5601 86.0155C33.0029 85.7791 31.4951 86.5321 31.4054 84.2518C31.3674 83.2848 33.7235 80.8983 34.321 80.0024C36.0176 77.4583 36.802 75.5287 36.964 72.4744C37.1005 69.9034 33.1024 69.9109 32.9664 72.4744C32.7352 76.8313 21.3312 87.6684 29.6193 90.0178C32.3741 90.7986 36.6207 90.0112 39.5009 90.0084C42.7948 90.0053 46.0887 90.0022 49.3826 89.9991C53.7433 89.995 58.8515 90.9539 62.5848 88.2816C63.2726 87.7892 63.8096 86.9056 63.5033 86.0243C61.5759 80.4782 58.8084 75.6424 55.0159 71.1562C53.3527 69.1889 50.5371 72.0288 52.1891 73.983Z" fill="#AA5131"/>
</svg>
