<svg width="75" height="76" viewBox="0 0 75 76" fill="none" xmlns="http://www.w3.org/2000/svg">
<path d="M37.3628 72.7216C30.3847 72.7216 23.5633 70.6523 17.7613 66.7755C11.9593 62.8987 7.43712 57.3885 4.76673 50.9416C2.09634 44.4947 1.39765 37.4008 2.759 30.5568C4.12035 23.7128 7.4806 17.4262 12.4148 12.492C17.3491 7.55775 23.6357 4.1975 30.4796 2.83615C37.3236 1.4748 44.4176 2.17349 50.8645 4.84388C57.3114 7.51426 62.8216 12.0364 66.6984 17.8384C70.5752 23.6405 72.6444 30.4618 72.6444 37.4399" stroke="#AA5131" stroke-width="3.52817" stroke-linejoin="round"/>
<path d="M51.475 63.3127C59.2692 63.3127 65.5877 56.9943 65.5877 49.2001C65.5877 41.4059 59.2692 35.0874 51.475 35.0874C43.6808 35.0874 37.3623 41.4059 37.3623 49.2001C37.3623 56.9943 43.6808 63.3127 51.475 63.3127Z" stroke="#AA5131" stroke-width="3.52817" stroke-linejoin="round"/>
<path d="M51.4756 63.314V75.0745" stroke="#AA5131" stroke-width="3.52817" stroke-linejoin="round"/>
<path d="M46.7725 49.2003C46.7725 47.9527 47.2681 46.7561 48.1503 45.8739C49.0325 44.9917 50.229 44.4961 51.4767 44.4961" stroke="#AA5131" stroke-width="3.52817" stroke-linejoin="round"/>
<path d="M37.3623 2.1582V30.3835" stroke="#AA5131" stroke-width="3.52817" stroke-linejoin="round"/>
<path d="M51.4756 4.51074V30.384" stroke="#AA5131" stroke-width="3.52817" stroke-linejoin="round"/>
<path d="M23.25 4.51074V70.3699" stroke="#AA5131" stroke-width="3.52817" stroke-linejoin="round"/>
<path d="M2.08105 37.4399H32.6585" stroke="#AA5131" stroke-width="3.52817" stroke-linejoin="round"/>
<path d="M6.78418 53.9048H32.6574" stroke="#AA5131" stroke-width="3.52817" stroke-linejoin="round"/>
<path d="M6.78418 20.9751H67.9391" stroke="#AA5131" stroke-width="3.52817" stroke-linejoin="round"/>
</svg>
