<svg width="79" height="78" viewBox="0 0 79 78" fill="none" xmlns="http://www.w3.org/2000/svg">
<path d="M0.552734 51.1414C0.552734 52.9879 2.04966 54.4848 3.89607 54.4848H28.2767V55.2135C28.2767 56.1697 28.6857 57.078 29.4 57.7132C30.6961 58.8666 32.6598 61.1969 32.7345 64.7699C32.7568 65.8208 32.7478 66.7257 32.7211 67.5003H45.8983C45.8716 66.7257 45.8626 65.8208 45.8849 64.7699C45.9596 61.1969 47.9232 58.8666 49.2193 57.7132C49.9337 57.078 50.3427 56.1697 50.3427 55.2135V54.4848H74.7233C76.5697 54.4848 78.0667 52.9879 78.0667 51.1414V48.3638H0.552734V51.1414Z" fill="#AA5131"/>
<path d="M54.5545 70.2866H24.0626C20.7224 70.2866 18.0146 72.9944 18.0146 76.3345C18.0146 77.1039 18.6384 77.7276 19.4077 77.7276H59.2095C59.9788 77.7276 60.6025 77.1039 60.6025 76.3345C60.6025 72.9944 57.8947 70.2866 54.5545 70.2866Z" fill="#AA5131"/>
<path d="M69.8954 14.9902H54.8359V22.4269H69.8954V14.9902Z" fill="#AA5131"/>
<path d="M46.8406 14.9902H31.7822V22.4269H46.8406V14.9902Z" fill="#AA5131"/>
<path d="M23.7851 14.9902H8.72559V22.4269H23.7851V14.9902Z" fill="#AA5131"/>
<path d="M74.7233 0.158203H3.89607C2.04966 0.158203 0.552734 1.65501 0.552734 3.50154V45.578H78.0666V3.50154C78.0667 1.65501 76.5697 0.158203 74.7233 0.158203ZM68.6587 4.81737H71.2884C72.0577 4.81737 72.6814 5.44101 72.6814 6.21042C72.6814 6.97984 72.0577 7.60348 71.2884 7.60348H68.6587C67.8894 7.60348 67.2657 6.97984 67.2657 6.21042C67.2657 5.44101 67.8894 4.81737 68.6587 4.81737ZM38.9813 4.81737H41.6109C42.3802 4.81737 43.004 5.44101 43.004 6.21042C43.004 6.97984 42.3802 7.60348 41.6109 7.60348H38.9813C38.212 7.60348 37.5882 6.97984 37.5882 6.21042C37.5882 5.44101 38.2119 4.81737 38.9813 4.81737ZM31.0687 4.81737H33.6984C34.4677 4.81737 35.0914 5.44101 35.0914 6.21042C35.0914 6.97984 34.4677 7.60348 33.6984 7.60348H31.0687C30.2994 7.60348 29.6757 6.97984 29.6757 6.21042C29.6757 5.44101 30.2993 4.81737 31.0687 4.81737ZM28.9944 13.5406C28.9944 12.8017 29.5928 12.2032 30.3317 12.2032H48.2877C49.0266 12.2032 49.625 12.8017 49.625 13.5406V23.8748C49.625 24.6126 49.0266 25.2122 48.2877 25.2122H30.3317C29.5928 25.2122 28.9944 24.6126 28.9944 23.8748V13.5406ZM15.2436 4.81737H17.8732C18.6425 4.81737 19.2663 5.44101 19.2663 6.21042C19.2663 6.97984 18.6425 7.60348 17.8732 7.60348H15.2436C14.4743 7.60348 13.8505 6.97984 13.8505 6.21042C13.8505 5.44101 14.4742 4.81737 15.2436 4.81737ZM7.33102 4.81737H9.96066C10.73 4.81737 11.3537 5.44101 11.3537 6.21042C11.3537 6.97984 10.73 7.60348 9.96066 7.60348H7.33102C6.56171 7.60348 5.93796 6.97984 5.93796 6.21042C5.93796 5.44101 6.5616 4.81737 7.33102 4.81737ZM26.569 39.5258C26.569 40.2952 25.9454 40.9188 25.176 40.9188H7.33102C6.56171 40.9188 5.93796 40.2952 5.93796 39.5258V34.9631C5.93796 34.1938 6.56171 33.5701 7.33102 33.5701H25.176C25.9454 33.5701 26.569 34.1938 26.569 34.9631V39.5258ZM25.176 30.7839H7.33102C6.56171 30.7839 5.93796 30.1602 5.93796 29.3909C5.93796 28.6215 6.56171 27.9978 7.33102 27.9978H25.176C25.9454 27.9978 26.569 28.6215 26.569 29.3909C26.569 30.1602 25.9454 30.7839 25.176 30.7839ZM26.5694 23.8748C26.5694 24.6126 25.9698 25.2122 25.232 25.2122H7.27496C6.5372 25.2122 5.93762 24.6126 5.93762 23.8748V13.5406C5.93762 12.8017 6.5372 12.2032 7.27496 12.2032H25.232C25.9698 12.2032 26.5694 12.8017 26.5694 13.5406V23.8748ZM25.7858 7.60348H23.1561C22.3868 7.60348 21.7631 6.97984 21.7631 6.21042C21.7631 5.44101 22.3868 4.81737 23.1561 4.81737H25.7858C26.5551 4.81737 27.1788 5.44101 27.1788 6.21042C27.1788 6.97984 26.5551 7.60348 25.7858 7.60348ZM49.6252 39.5258C49.6252 40.2952 49.0016 40.9188 48.2322 40.9188H30.3872C29.6178 40.9188 28.9942 40.2952 28.9942 39.5258V34.9631C28.9942 34.1938 29.6178 33.5701 30.3872 33.5701H48.2322C49.0016 33.5701 49.6252 34.1938 49.6252 34.9631V39.5258ZM48.2322 30.7839H30.3872C29.6178 30.7839 28.9942 30.1602 28.9942 29.3909C28.9942 28.6215 29.6178 27.9978 30.3872 27.9978H48.2322C49.0016 27.9978 49.6252 28.6215 49.6252 29.3909C49.6252 30.1602 49.0016 30.7839 48.2322 30.7839ZM72.6814 39.5258C72.6814 40.2952 72.0577 40.9188 71.2884 40.9188H53.4434C52.6741 40.9188 52.0504 40.2952 52.0504 39.5258V34.9631C52.0504 34.1938 52.6741 33.5701 53.4434 33.5701H71.2885C72.0578 33.5701 72.6816 34.1938 72.6816 34.9631L72.6814 39.5258ZM71.2884 30.7839H53.4434C52.6741 30.7839 52.0504 30.1602 52.0504 29.3909C52.0504 28.6215 52.6741 27.9978 53.4434 27.9978H71.2885C72.0578 27.9978 72.6816 28.6215 72.6816 29.3909C72.6814 30.1602 72.0578 30.7839 71.2884 30.7839ZM72.6818 23.8748C72.6818 24.6126 72.0822 25.2122 71.3444 25.2122H53.3874C52.6496 25.2122 52.05 24.6126 52.05 23.8748V13.5406C52.05 12.8017 52.6496 12.2032 53.3874 12.2032H71.3444C72.0822 12.2032 72.6818 12.8017 72.6818 13.5406V23.8748Z" fill="#AA5131"/>
</svg>
