<svg width="80" height="71" viewBox="0 0 80 71" fill="none" xmlns="http://www.w3.org/2000/svg">
<path d="M22.0162 70.7213H3.4246C2.01614 70.7213 0.889375 69.5946 0.607683 68.4678C0.325992 67.0594 1.17107 65.6509 2.57952 65.3692C5.39644 64.5241 7.08658 61.7072 7.08658 58.6086V55.7917C7.08658 51.2846 8.77673 47.0593 12.157 43.9607C15.2556 41.1438 19.1993 39.4536 23.143 39.4536C31.5937 39.7353 38.0726 46.4959 38.3543 54.9466C38.3543 59.172 36.9459 63.1157 33.8473 66.2143C30.7487 69.0312 26.5233 70.7213 22.0162 70.7213Z" fill="#AA5131"/>
<path d="M77.5068 2.27089C74.6899 -0.546025 70.1829 -0.546025 67.366 2.27089L30.7461 34.9471C36.9433 37.4823 41.4504 42.5527 43.4222 49.0316L77.7885 12.4118C80.3238 9.59486 80.0421 5.0878 77.5068 2.27089Z" fill="#AA5131"/>
</svg>
