<svg width="95" height="77" viewBox="0 0 95 77" fill="none" xmlns="http://www.w3.org/2000/svg">
<path d="M7.78948 8.97885C8.76375 8.97885 9.55356 8.18904 9.55356 7.21477C9.55356 6.24049 8.76375 5.45068 7.78948 5.45068C6.8152 5.45068 6.02539 6.24049 6.02539 7.21477C6.02539 8.18904 6.8152 8.97885 7.78948 8.97885Z" fill="#AA5131"/>
<path d="M19.5561 8.97885C20.5304 8.97885 21.3202 8.18904 21.3202 7.21477C21.3202 6.24049 20.5304 5.45068 19.5561 5.45068C18.5818 5.45068 17.792 6.24049 17.792 7.21477C17.792 8.18904 18.5818 8.97885 19.5561 8.97885Z" fill="#AA5131"/>
<path d="M13.6811 8.97885C14.6554 8.97885 15.4452 8.18904 15.4452 7.21477C15.4452 6.24049 14.6554 5.45068 13.6811 5.45068C12.7068 5.45068 11.917 6.24049 11.917 7.21477C11.917 8.18904 12.7068 8.97885 13.6811 8.97885Z" fill="#AA5131"/>
<path d="M24.4268 29.945L29.719 24.6527C30.0512 24.3205 30.2379 23.87 30.2379 23.4002C30.2379 22.9304 30.0512 22.4799 29.719 22.1477C29.3869 21.8155 28.9363 21.6289 28.4665 21.6289C27.9968 21.6289 27.5462 21.8155 27.214 22.1477L20.6517 28.7277C20.3231 29.0583 20.1387 29.5054 20.1387 29.9714C20.1387 30.4375 20.3231 30.8846 20.6517 31.2151L27.214 37.7951C27.378 37.9605 27.5732 38.0917 27.7881 38.1813C28.0031 38.2708 28.2337 38.317 28.4665 38.317C28.6994 38.317 28.93 38.2708 29.145 38.1813C29.3599 38.0917 29.5551 37.9605 29.719 37.7951C30.0476 37.4646 30.232 37.0175 30.232 36.5515C30.232 36.0854 30.0476 35.6383 29.719 35.3078L24.4268 29.945Z" fill="#AA5131"/>
<path d="M49.6874 37.399C50.0179 37.7275 50.465 37.9119 50.9311 37.9119C51.3971 37.9119 51.8442 37.7275 52.1748 37.399L58.7548 30.9071C59.0834 30.5766 59.2678 30.1295 59.2678 29.6634C59.2678 29.1974 59.0834 28.7503 58.7548 28.4198L52.1748 21.8397C51.8426 21.5099 51.393 21.3255 50.9249 21.3272C50.4567 21.3288 50.0084 21.5164 49.6786 21.8485C49.3487 22.1807 49.1644 22.6303 49.166 23.0985C49.1677 23.5666 49.3552 24.0149 49.6874 24.3447L54.9797 29.637L49.6874 34.9292C49.3642 35.259 49.1831 35.7023 49.1831 36.1641C49.1831 36.6258 49.3642 37.0692 49.6874 37.399Z" fill="#AA5131"/>
<path d="M43.8315 22.3524C43.6302 22.2357 43.4077 22.1601 43.177 22.1298C42.9463 22.0995 42.7119 22.1151 42.4873 22.1758C42.2626 22.2364 42.0522 22.3409 41.8681 22.4833C41.684 22.6256 41.5299 22.803 41.4147 23.0051L34.9052 34.4364C34.7776 34.6371 34.6919 34.8617 34.6533 35.0964C34.6147 35.3312 34.6239 35.5714 34.6805 35.8025C34.7371 36.0335 34.8399 36.2508 34.9826 36.4411C35.1254 36.6315 35.3052 36.791 35.5111 36.91C35.7171 37.0291 35.9451 37.1053 36.1812 37.134C36.4174 37.1627 36.657 37.1433 36.8855 37.077C37.114 37.0107 37.3267 36.8989 37.5109 36.7482C37.695 36.5976 37.8468 36.4113 37.9571 36.2004L44.5371 24.8221C44.6602 24.6154 44.7397 24.3857 44.7708 24.1471C44.8018 23.9086 44.7838 23.6662 44.7177 23.4349C44.6516 23.2035 44.5389 22.9882 44.3865 22.802C44.2341 22.6159 44.0452 22.4629 43.8315 22.3524Z" fill="#AA5131"/>
<path d="M90.4547 50.0112C90.3507 50.0104 90.2493 49.9779 90.1642 49.918C90.0791 49.8582 90.0143 49.7737 89.9784 49.6761C89.2765 47.8295 88.2817 46.1081 87.0324 44.5778C86.9732 44.4923 86.9415 44.3908 86.9415 44.2868C86.9415 44.1828 86.9732 44.0812 87.0324 43.9957C87.5697 43.0645 87.7154 41.9581 87.4376 40.9195C87.1597 39.8809 86.4811 38.9951 85.5506 38.4565L84.2275 37.6626V5.45046C84.2275 4.04686 83.6699 2.70076 82.6775 1.70827C81.685 0.715779 80.3389 0.158203 78.9353 0.158203H6.02565C4.62206 0.158203 3.27595 0.715779 2.28346 1.70827C1.29097 2.70076 0.733398 4.04686 0.733398 5.45046V50.1524C0.738041 51.2411 1.17258 52.2838 1.94241 53.0537C2.71224 53.8235 3.75502 54.258 4.84372 54.2627H28.9587L27.1947 60.7898H24.8484C23.1302 60.791 21.4626 61.3714 20.115 62.4373C18.7673 63.5033 17.8185 64.9924 17.4216 66.6642H13.082C12.6141 66.6642 12.1654 66.8501 11.8346 67.1809C11.5038 67.5117 11.3179 67.9604 11.3179 68.4283C11.3179 68.8961 11.5038 69.3448 11.8346 69.6757C12.1654 70.0065 12.6141 70.1924 13.082 70.1924H58.0132C57.9833 70.6138 58.0251 71.0373 58.1367 71.4449C58.269 71.9623 58.5043 72.4478 58.8287 72.8722C59.153 73.2965 59.5597 73.6511 60.0243 73.9146L63.7465 76.0668C64.2087 76.3321 64.7185 76.5037 65.247 76.572C65.7756 76.6402 66.3123 76.6036 66.8267 76.4644C67.3411 76.3252 67.823 76.0859 68.2449 75.7604C68.6668 75.4349 69.0205 75.0295 69.2857 74.5673C69.3429 74.4773 69.4251 74.406 69.5223 74.3621C69.6194 74.3182 69.7273 74.3037 69.8326 74.3203C71.7704 74.6555 73.7515 74.6555 75.6893 74.3203C75.7966 74.3029 75.9067 74.319 76.0045 74.3663C76.1024 74.4137 76.1833 74.49 76.2362 74.5849C76.5958 75.2006 77.1112 75.7106 77.7306 76.0636C78.35 76.4167 79.0515 76.6003 79.7644 76.596C80.4756 76.6029 81.1758 76.4202 81.7931 76.0668L85.5153 73.9146C85.9774 73.6479 86.3822 73.2924 86.7061 72.8685C87.0301 72.4446 87.2669 71.9608 87.4029 71.4449C87.5434 70.932 87.5798 70.3963 87.5101 69.8691C87.4405 69.342 87.266 68.8341 86.9971 68.3753C86.9364 68.2871 86.904 68.1825 86.904 68.0755C86.904 67.9684 86.9364 67.8638 86.9971 67.7756C88.2426 66.2491 89.237 64.5341 89.9431 62.695C89.9768 62.5959 90.041 62.51 90.1266 62.4497C90.2123 62.3895 90.3148 62.358 90.4194 62.3598C91.4941 62.3552 92.5234 61.9262 93.2833 61.1663C94.0432 60.4064 94.4722 59.3771 94.4768 58.3024V53.9981C94.4585 52.9403 94.0277 51.9316 93.2764 51.1869C92.5251 50.4421 91.5126 50.0203 90.4547 50.0112ZM4.26157 5.45046C4.26157 4.98259 4.44743 4.53389 4.77826 4.20306C5.10909 3.87223 5.55779 3.68637 6.02565 3.68637H78.9353C79.4031 3.68637 79.8518 3.87223 80.1827 4.20306C80.5135 4.53389 80.6993 4.98259 80.6993 5.45046V10.7427H4.26157V5.45046ZM4.84372 50.7345C4.76727 50.7345 4.69157 50.7194 4.62094 50.6902C4.55031 50.6609 4.48613 50.6181 4.43207 50.564C4.37802 50.5099 4.33514 50.4458 4.30588 50.3751C4.27663 50.3045 4.26157 50.2288 4.26157 50.1524V14.2709H80.6993V35.8986C79.8646 35.6768 78.9807 35.7285 78.1774 36.046C77.3742 36.3635 76.6938 36.9301 76.2362 37.6626C76.1813 37.7497 76.1014 37.8181 76.007 37.859C75.9126 37.8999 75.808 37.9114 75.707 37.892C73.7677 37.5743 71.7896 37.5743 69.8502 37.892C69.7491 37.914 69.6436 37.9037 69.5487 37.8626C69.4537 37.8214 69.3741 37.7515 69.321 37.6626C69.056 37.2002 68.7021 36.7947 68.2797 36.4697C67.8573 36.1446 67.3748 35.9063 66.8599 35.7686C66.345 35.6308 65.8079 35.5963 65.2796 35.6671C64.7514 35.7378 64.2423 35.9124 63.7818 36.1808L60.0596 38.333C59.5961 38.5937 59.1901 38.9452 58.8658 39.3666C58.5414 39.7879 58.3055 40.2704 58.172 40.7851C57.8899 41.8251 58.0293 42.9344 58.5601 43.8722C58.6245 43.9556 58.6594 44.058 58.6594 44.1633C58.6594 44.2686 58.6245 44.371 58.5601 44.4544C57.3108 45.9846 56.316 47.706 55.6141 49.5526C55.5782 49.6503 55.5134 49.7347 55.4283 49.7945C55.3432 49.8544 55.2418 49.887 55.1378 49.8877C54.2737 49.889 53.4329 50.1672 52.7386 50.6816L4.84372 50.7345ZM51.8918 60.7898H30.7228L32.4869 54.2627H51.0098V58.3024C51.0211 59.2062 51.3312 60.0808 51.8918 60.7898ZM24.8661 64.318H56.2668C56.67 65.1313 57.1298 65.9153 57.6428 66.6642H21.1439C21.4769 65.9633 22.0016 65.371 22.6571 64.9558C23.3127 64.5406 24.0724 64.3195 24.8484 64.318H24.8661ZM90.984 58.3024C90.984 58.4428 90.9282 58.5774 90.829 58.6767C90.7297 58.7759 90.5951 58.8317 90.4547 58.8317C89.633 58.8337 88.8311 59.0841 88.1542 59.55C87.4774 60.016 86.9572 60.6756 86.6619 61.4425C86.0981 62.9298 85.3 64.3174 84.2981 65.5528C83.7814 66.191 83.4696 66.9704 83.4035 67.7888C83.3374 68.6073 83.5201 69.4266 83.9276 70.1394C83.956 70.2002 83.9707 70.2664 83.9707 70.3335C83.9707 70.4005 83.956 70.4668 83.9276 70.5275C83.9123 70.5976 83.8823 70.6636 83.8398 70.7214C83.7972 70.7791 83.743 70.8273 83.6806 70.8627L80.0114 72.9443C79.9501 72.9784 79.8826 73 79.813 73.0078C79.7433 73.0156 79.6727 73.0095 79.6054 72.9898C79.5381 72.9701 79.4754 72.9372 79.421 72.893C79.3665 72.8489 79.3213 72.7944 79.2881 72.7326C78.871 72.0217 78.2481 71.454 77.5017 71.1044C76.7553 70.7548 75.9204 70.6398 75.1072 70.7745C73.5542 71.039 71.9677 71.039 70.4147 70.7745C69.5997 70.6414 68.7635 70.7591 68.0169 71.1119C67.2703 71.4648 66.6485 72.0361 66.2339 72.7503C66.1606 72.8686 66.045 72.9545 65.9106 72.9905C65.7763 73.0266 65.6332 73.0101 65.5106 72.9443L61.7884 70.7921C61.726 70.7567 61.6718 70.7086 61.6292 70.6508C61.5867 70.5931 61.5568 70.527 61.5414 70.457C61.513 70.3962 61.4983 70.33 61.4983 70.2629C61.4983 70.1959 61.513 70.1296 61.5414 70.0689C61.9442 69.3546 62.1242 68.5362 62.0581 67.7189C61.9921 66.9015 61.6831 66.1226 61.1709 65.4822C60.1599 64.25 59.3556 62.8619 58.7894 61.3719C58.4935 60.6253 57.9809 59.9843 57.3175 59.5315C56.6541 59.0788 55.8703 58.835 55.0672 58.8317C54.9268 58.8317 54.7922 58.7759 54.693 58.6767C54.5937 58.5774 54.538 58.4428 54.538 58.3024V53.9981C54.5355 53.9279 54.5475 53.858 54.5732 53.7927C54.599 53.7273 54.6379 53.668 54.6875 53.6184C54.7371 53.5687 54.7965 53.5298 54.8618 53.5041C54.9271 53.4784 54.997 53.4664 55.0672 53.4688C55.8865 53.4657 56.6856 53.2146 57.3594 52.7486C58.0333 52.2825 58.5503 51.6234 58.8423 50.858C59.4045 49.3661 60.2092 47.9774 61.2239 46.7477C61.7361 46.1073 62.0451 45.3284 62.1111 44.5111C62.1771 43.6937 61.9971 42.8753 61.5943 42.1611C61.5656 42.0973 61.5507 42.0281 61.5507 41.9582C61.5507 41.8882 61.5656 41.8191 61.5943 41.7553C61.6086 41.6871 61.6383 41.623 61.6811 41.568C61.7239 41.513 61.7787 41.4685 61.8413 41.4378L65.5635 39.2856C65.6501 39.2615 65.7416 39.2615 65.8281 39.2856C65.9164 39.2867 66.003 39.3099 66.08 39.353C66.157 39.3962 66.2221 39.4579 66.2691 39.5326C66.6856 40.245 67.3077 40.8149 68.0538 41.1675C68.7999 41.5201 69.6352 41.6389 70.45 41.5083C72.003 41.2438 73.5895 41.2438 75.1425 41.5083C75.9627 41.6191 76.7973 41.4797 77.537 41.1082C78.2767 40.7368 78.887 40.1508 79.2881 39.4267C79.3226 39.3685 79.3683 39.3178 79.4225 39.2774C79.4767 39.2369 79.5385 39.2077 79.6041 39.1913C79.6697 39.1749 79.7379 39.1716 79.8048 39.1818C79.8717 39.1919 79.9359 39.2152 79.9937 39.2503L83.7159 41.4025C83.7785 41.4332 83.8333 41.4777 83.8761 41.5327C83.9189 41.5878 83.9486 41.6518 83.9629 41.72C83.9916 41.7838 84.0065 41.853 84.0065 41.9229C84.0065 41.9929 83.9916 42.062 83.9629 42.1258C83.5569 42.8359 83.375 43.6522 83.4411 44.4676C83.5072 45.283 83.8182 46.0593 84.3334 46.6947C85.3357 47.9364 86.1337 49.3298 86.6972 50.8227C86.9753 51.6024 87.4833 52.2795 88.1542 52.7645C88.825 53.2495 89.6272 53.5197 90.4547 53.5394C90.5249 53.5369 90.5948 53.5489 90.6601 53.5747C90.7255 53.6004 90.7848 53.6393 90.8344 53.6889C90.8841 53.7386 90.923 53.7979 90.9487 53.8632C90.9744 53.9285 90.9864 53.9985 90.984 54.0686V58.3024Z" fill="#AA5131"/>
<path d="M72.2492 47.7886C70.6652 47.7886 69.1167 48.2583 67.7997 49.1383C66.4826 50.0184 65.4561 51.2692 64.8499 52.7326C64.2437 54.1961 64.0851 55.8064 64.3941 57.36C64.7032 58.9136 65.4659 60.3406 66.586 61.4607C67.7061 62.5808 69.1331 63.3435 70.6867 63.6526C72.2403 63.9616 73.8506 63.803 75.3141 63.1968C76.7775 62.5906 78.0283 61.5641 78.9084 60.2471C79.7884 58.93 80.2581 57.3815 80.2581 55.7975C80.2581 53.6734 79.4143 51.6363 77.9124 50.1343C76.4104 48.6324 74.3733 47.7886 72.2492 47.7886ZM72.2492 60.2783C71.363 60.2783 70.4967 60.0155 69.7598 59.5232C69.0229 59.0308 68.4486 58.331 68.1095 57.5122C67.7703 56.6935 67.6816 55.7926 67.8545 54.9234C68.0274 54.0542 68.4541 53.2558 69.0808 52.6291C69.7074 52.0025 70.5058 51.5757 71.375 51.4028C72.2442 51.2299 73.1451 51.3187 73.9639 51.6578C74.7827 51.997 75.4825 52.5713 75.9748 53.3081C76.4672 54.045 76.73 54.9113 76.73 55.7975C76.7206 56.9798 76.2445 58.1104 75.4052 58.9431C74.5659 59.7758 73.4315 60.2431 72.2492 60.243V60.2783Z" fill="#AA5131"/>
</svg>
